<?xml version="1.0" standalone="no"?>
<!DOCTYPE svg PUBLIC "-//W3C//DTD SVG 20010904//EN"
 "http://www.w3.org/TR/2001/REC-SVG-20010904/DTD/svg10.dtd">
<svg version="1.0" xmlns="http://www.w3.org/2000/svg"
 width="700.000000pt" height="700.000000pt" viewBox="0 0 700.000000 700.000000"
 preserveAspectRatio="xMidYMid meet">
<metadata>
Created by potrace 1.14, written by Peter Selinger 2001-2017
</metadata>
<g transform="translate(0.000000,700.000000) scale(0.100000,-0.100000)"
fill="#000000" stroke="none">
<path d="M1575 6816 c-639 -102 -1171 -573 -1346 -1195 -62 -223 -60 -132 -57
-2171 l4 -1855 21 -93 c52 -224 134 -418 251 -593 247 -369 614 -614 1064
-712 l103 -22 1890 0 1890 0 102 23 c508 112 912 417 1146 863 69 131 117 261
154 414 l28 120 0 1900 c0 1819 -1 1904 -19 1990 -139 667 -622 1158 -1298
1317 l-93 22 -1880 2 c-1475 2 -1897 -1 -1960 -10z m3448 -1324 c110 -48 209
-184 227 -313 17 -115 14 -131 -40 -221 -75 -125 -110 -162 -193 -203 -68 -34
-78 -36 -172 -36 -125 0 -185 18 -262 75 -88 67 -156 158 -187 254 l-18 52
-888 0 -888 0 -327 -332 c-180 -183 -338 -347 -352 -365 l-25 -32 8 -901 7
-901 372 -367 373 -366 673 -2 c371 -1 895 -8 1164 -14 541 -12 573 -15 619
-71 30 -35 32 -64 11 -117 -21 -49 -52 -81 -100 -103 -38 -18 -95 -19 -1260
-19 l-1220 0 -246 243 c-135 133 -350 341 -477 462 l-232 220 0 1030 0 1030
459 459 459 459 1014 4 1013 4 42 30 c85 61 160 78 308 71 58 -3 96 -11 138
-30z m-1370 -709 c55 -22 124 -104 143 -170 13 -45 14 -63 4 -101 -33 -132
-145 -232 -261 -232 -55 0 -88 15 -144 68 l-50 47 -272 -5 -271 -5 -100 -111
-100 -111 -4 -112 -3 -113 160 7 c88 4 497 7 910 8 l749 2 33 60 c61 110 168
187 285 206 91 15 225 -3 290 -38 66 -36 162 -124 192 -177 52 -90 61 -238 21
-325 -34 -71 -103 -168 -155 -215 -65 -58 -120 -78 -236 -84 -177 -8 -284 40
-375 172 l-52 74 -301 7 c-381 9 -1492 3 -1503 -8 -4 -5 -10 -96 -12 -203 l-3
-194 372 0 373 0 47 44 c123 115 309 74 391 -86 30 -58 29 -119 -2 -188 -35
-76 -74 -119 -134 -146 -81 -38 -175 -27 -251 31 -56 43 -117 50 -389 48 -137
-1 -281 -6 -320 -10 l-70 -8 -9 -62 c-5 -34 -6 -72 -3 -86 4 -13 61 -73 134
-138 l128 -115 690 8 c779 9 835 11 835 37 0 10 14 46 32 81 43 87 135 178
223 221 67 33 74 34 185 34 106 0 119 -2 173 -29 84 -41 180 -134 218 -211 27
-55 32 -78 36 -167 l6 -104 -43 -70 c-91 -146 -164 -218 -250 -247 -154 -52
-329 -17 -478 95 l-44 33 -849 5 -848 5 -236 235 -235 234 0 807 0 806 195
192 c107 105 207 198 221 207 21 15 72 18 349 24 l324 8 39 32 c73 58 153 69
245 33z"/>
<path d="M4752 5253 c-112 -55 -111 -196 3 -260 80 -45 149 -22 192 65 40 82
19 153 -58 193 -46 23 -93 24 -137 2z"/>
<path d="M4720 3924 c-42 -36 -60 -74 -60 -127 0 -116 149 -197 239 -130 41
31 63 68 68 116 5 37 1 54 -20 90 -36 61 -64 77 -136 77 -50 0 -65 -4 -91 -26z"/>
<path d="M4733 2600 c-86 -52 -93 -146 -16 -231 53 -58 111 -67 182 -29 57 30
79 132 42 200 -40 75 -137 104 -208 60z"/>
</g>
</svg>
