<svg xmlns="http://www.w3.org/2000/svg" xmlns:xlink="http://www.w3.org/1999/xlink" width="800" zoomAndPan="magnify" viewBox="0 0 600 599.999999" height="800" preserveAspectRatio="xMidYMid meet" version="1.0"><defs><clipPath id="486a7d8500"><path d="M 14.148438 14.148438 L 585.648438 14.148438 L 585.648438 585.648438 L 14.148438 585.648438 Z M 14.148438 14.148438 " clip-rule="nonzero"/></clipPath></defs><g clip-path="url(#486a7d8500)"><path fill="#2563eb" d="M 157.144531 14.078125 C 78.210938 14.078125 14.21875 78.074219 14.21875 157.003906 L 14.21875 442.851562 C 14.21875 521.78125 78.210938 585.777344 157.144531 585.777344 L 442.992188 585.777344 C 521.921875 585.777344 585.917969 521.78125 585.917969 442.851562 L 585.917969 157.003906 C 585.917969 78.074219 521.921875 14.078125 442.992188 14.078125 Z M 157.144531 14.078125 " fill-opacity="1" fill-rule="nonzero"/></g><path fill="#ffffff" d="M 403.058594 127.40625 C 397.929688 129.117188 393.941406 131.300781 390.332031 134.246094 C 388.714844 135.671875 387.007812 136.523438 386.4375 136.144531 C 384.820312 135.195312 216.410156 135.574219 214.605469 136.523438 C 213.75 137 195.703125 154.761719 174.613281 176.039062 L 136.144531 214.605469 L 136.144531 219.257812 C 136.242188 221.917969 136.335938 261.71875 136.429688 307.785156 L 136.621094 391.566406 L 149.160156 403.535156 C 177.558594 430.414062 211.089844 462.996094 214.128906 466.796875 L 217.359375 470.691406 L 321.558594 470.878906 C 397.074219 470.976562 426.710938 470.691406 429.179688 469.929688 C 435.828125 467.746094 440.863281 460.90625 440.390625 454.542969 C 440.199219 451.3125 439.535156 450.269531 436.875 448.464844 C 435.070312 447.226562 432.125 445.898438 430.226562 445.421875 C 425.570312 444.1875 286.792969 442.097656 254.40625 442.667969 L 228.28125 443.144531 L 195.890625 411.226562 L 163.5 379.3125 L 163.3125 301.898438 L 163.027344 224.484375 L 174.710938 212.136719 C 181.167969 205.296875 194.65625 191.429688 204.726562 181.265625 L 223.152344 162.742188 L 278.4375 162.742188 C 308.832031 162.835938 343.121094 162.933594 354.617188 163.027344 L 375.609375 163.214844 L 376.652344 167.207031 C 379.3125 177.179688 390.804688 190.003906 400.496094 193.707031 C 407.429688 196.367188 421.011719 196.652344 426.804688 194.183594 C 435.925781 190.289062 439.34375 187.152344 445.042969 177.65625 L 450.550781 168.441406 L 450.457031 160.652344 C 450.363281 154.191406 449.886719 152.007812 447.417969 146.785156 C 443.714844 138.804688 437.917969 132.628906 431.269531 129.304688 C 426.617188 127.027344 424.527344 126.648438 416.355469 126.457031 C 410.375 126.265625 405.433594 126.648438 403.058594 127.40625 Z M 418.160156 149.347656 C 425.191406 152.292969 427.851562 159.703125 424.242188 166.824219 C 421.296875 172.714844 416.738281 175.183594 411.226562 173.664062 C 400.683594 170.816406 396.316406 159.226562 403.34375 152.484375 C 407.902344 148.113281 412.652344 147.070312 418.160156 149.347656 Z M 418.160156 149.347656 " fill-opacity="1" fill-rule="nonzero"/><path fill="#ffffff" d="M 298.289062 189.148438 C 296.578125 189.8125 293.730469 191.523438 291.828125 193.042969 L 288.410156 195.703125 L 260.769531 196.175781 C 233.601562 196.652344 232.9375 196.652344 230.183594 198.835938 C 228.664062 200.070312 220.207031 208.050781 211.46875 216.695312 L 195.511719 232.367188 L 195.324219 301.613281 L 195.039062 370.761719 L 215.363281 390.902344 L 235.597656 411.132812 L 302.753906 411.324219 C 389 411.511719 380.832031 411.132812 385.960938 415.3125 C 394.984375 422.722656 407.429688 426.234375 419.015625 424.527344 C 430.984375 422.816406 437.539062 417.78125 446.277344 403.4375 L 450.550781 396.410156 L 450.550781 387.386719 C 450.550781 379.597656 450.171875 377.601562 448.082031 373.042969 C 444.851562 366.203125 436.589844 358.035156 429.558594 354.519531 C 424.429688 352.050781 423.007812 351.765625 413.984375 351.765625 C 405.148438 351.765625 403.4375 352.050781 398.5 354.332031 C 388.8125 358.890625 379.691406 369.148438 376.9375 378.457031 L 375.796875 382.351562 L 365.730469 383.015625 C 360.21875 383.300781 334.289062 383.585938 308.167969 383.683594 C 281.949219 383.683594 257.347656 384.0625 253.453125 384.441406 L 246.332031 385.203125 L 241.011719 380.355469 C 238.160156 377.699219 232.84375 373.042969 229.421875 370.003906 C 223.25 364.589844 223.058594 364.398438 223.058594 359.933594 C 223.058594 357.371094 223.34375 354.046875 223.628906 352.527344 L 224.199219 349.769531 L 244.242188 348.632812 C 270.265625 347.300781 285.65625 348.347656 289.835938 351.859375 C 297.242188 358.035156 305.699219 359.175781 313.769531 354.996094 C 317.664062 353 319.183594 351.292969 322.320312 345.972656 C 327.257812 337.519531 327.542969 332.007812 323.269531 325.167969 C 319.375 318.902344 314.722656 315.386719 308.738281 314.246094 C 301.234375 312.820312 295.25 314.4375 290.59375 319.089844 L 286.890625 322.796875 L 254.785156 322.890625 L 222.582031 322.890625 L 222.964844 305.980469 C 223.152344 296.671875 223.4375 288.882812 223.628906 288.695312 C 224.007812 288.21875 284.515625 288.03125 337.136719 288.316406 L 378.648438 288.601562 L 382.445312 294.679688 C 389.191406 305.414062 398.785156 310.445312 412.460938 310.445312 C 427.660156 310.445312 435.070312 306.171875 444.378906 292.113281 C 450.550781 282.804688 451.691406 278.816406 450.742188 269.695312 C 449.886719 261.910156 448.652344 258.296875 444.664062 253.074219 C 440.484375 247.660156 430.984375 240.726562 425.097656 239.015625 C 422.910156 238.351562 417.023438 237.78125 412.082031 237.78125 C 404.199219 237.78125 402.300781 238.160156 397.359375 240.441406 C 390.332031 243.671875 383.585938 250.128906 380.738281 256.398438 L 378.550781 261.054688 L 319.660156 260.957031 C 287.269531 260.957031 252.03125 261.242188 241.484375 261.625 L 222.296875 262.289062 L 223.25 242.53125 L 228.757812 236.832031 C 231.703125 233.695312 235.5 229.421875 237.210938 227.332031 L 240.15625 223.535156 L 263.902344 223.4375 L 287.554688 223.25 L 290.972656 227.332031 C 296.386719 233.980469 304.367188 235.21875 313.296875 230.65625 C 320.421875 227.046875 327.257812 215.269531 326.214844 208.144531 C 324.316406 194.085938 310.542969 184.777344 298.289062 189.148438 Z M 421.582031 264.664062 C 426.234375 269.222656 427.1875 273.6875 424.90625 279.671875 C 420.820312 290.40625 405.910156 290.5 400.398438 279.859375 C 397.835938 274.636719 398.878906 269.316406 403.535156 264.664062 C 406.859375 261.339844 407.523438 261.054688 412.558594 261.054688 C 417.59375 261.054688 418.257812 261.339844 421.582031 264.664062 Z M 419.683594 377.507812 C 423.671875 380.925781 425.382812 384.535156 425.382812 389.761719 C 425.382812 398.976562 414.550781 404.863281 407.046875 399.734375 C 397.359375 393.085938 397.265625 380.546875 406.761719 376.367188 C 411.609375 374.277344 416.261719 374.753906 419.683594 377.507812 Z M 419.683594 377.507812 " fill-opacity="1" fill-rule="nonzero"/></svg>