<svg xmlns="http://www.w3.org/2000/svg" xmlns:xlink="http://www.w3.org/1999/xlink" width="1080" zoomAndPan="magnify" viewBox="0 0 810 809.999993" height="1080" preserveAspectRatio="xMidYMid meet" version="1.0"><defs><g/><clipPath id="d3fd57cfbd"><path d="M 68.746094 52.625 L 769.25 52.625 L 769.25 753.128906 L 68.746094 753.128906 Z M 68.746094 52.625 " clip-rule="nonzero"/></clipPath><clipPath id="30fd920fd2"><path d="M 419 52.625 C 225.558594 52.625 68.746094 209.4375 68.746094 402.878906 C 68.746094 596.316406 225.558594 753.128906 419 753.128906 C 612.4375 753.128906 769.25 596.316406 769.25 402.878906 C 769.25 209.4375 612.4375 52.625 419 52.625 Z M 419 52.625 " clip-rule="nonzero"/></clipPath><clipPath id="2b6074c35a"><path d="M 69 536 L 284 536 L 284 750 L 69 750 Z M 69 536 " clip-rule="nonzero"/></clipPath><clipPath id="7548c1f8e0"><path d="M 30.019531 561.136719 L 243.644531 511.804688 L 288.15625 704.570312 L 74.53125 753.902344 Z M 30.019531 561.136719 " clip-rule="nonzero"/></clipPath><clipPath id="d8eb3b822c"><path d="M 158.003906 543.414062 L 277.898438 673.128906 C 283.226562 678.894531 285.082031 687.058594 282.773438 694.558594 C 280.464844 702.058594 274.332031 707.765625 266.683594 709.527344 L 96.480469 748.832031 C 88.828125 750.597656 80.820312 748.160156 75.457031 742.429688 C 70.089844 736.703125 68.175781 728.554688 70.4375 721.035156 L 121.324219 551.886719 C 123.5625 544.4375 129.621094 538.761719 137.207031 537.007812 C 144.785156 535.253906 152.722656 537.703125 158.003906 543.414062 Z M 158.003906 543.414062 " clip-rule="nonzero"/></clipPath></defs><g clip-path="url(#d3fd57cfbd)"><g clip-path="url(#30fd920fd2)"><path fill="#00f39f" d="M 68.746094 52.625 L 769.25 52.625 L 769.25 753.128906 L 68.746094 753.128906 Z M 68.746094 52.625 " fill-opacity="1" fill-rule="nonzero"/></g></g><g clip-path="url(#2b6074c35a)"><g clip-path="url(#7548c1f8e0)"><g clip-path="url(#d8eb3b822c)"><path fill="#00f39f" d="M 10.175781 543.746094 L 254.679688 487.28125 L 304.011719 700.910156 L 59.507812 757.371094 Z M 10.175781 543.746094 " fill-opacity="1" fill-rule="nonzero"/></g></g></g><g fill="#ffffff" fill-opacity="1"><g transform="translate(219.651568, 617.15092)"><g><path d="M 76.515625 0 C 62.671875 0 51.300781 -2.960938 42.40625 -8.890625 C 33.507812 -14.828125 27.476562 -22.835938 24.3125 -32.921875 C 21.15625 -43.003906 21.15625 -54.070312 24.3125 -66.125 C 27.476562 -78.1875 34.003906 -90.347656 43.890625 -102.609375 L 248.5 -359.421875 L 248.5 -328.578125 L 68.203125 -328.578125 C 52.785156 -328.578125 41.117188 -332.429688 33.203125 -340.140625 C 25.296875 -347.847656 21.34375 -359.019531 21.34375 -373.65625 C 21.34375 -388.28125 25.296875 -399.347656 33.203125 -406.859375 C 41.117188 -414.367188 52.785156 -418.125 68.203125 -418.125 L 299.515625 -418.125 C 313.347656 -418.125 324.710938 -415.160156 333.609375 -409.234375 C 342.503906 -403.304688 348.535156 -395.398438 351.703125 -385.515625 C 354.867188 -375.628906 354.867188 -364.554688 351.703125 -352.296875 C 348.535156 -340.035156 342.007812 -327.78125 332.125 -315.53125 L 127.515625 -58.71875 L 127.515625 -89.5625 L 317.3125 -89.5625 C 332.332031 -89.5625 343.894531 -85.800781 352 -78.28125 C 360.101562 -70.769531 364.15625 -59.703125 364.15625 -45.078125 C 364.15625 -30.441406 360.101562 -19.269531 352 -11.5625 C 343.894531 -3.851562 332.332031 0 317.3125 0 Z M 76.515625 0 "/></g></g></g></svg>